<svg xmlns="http://www.w3.org/2000/svg" version="1.0" width="1542.000000pt" height="1125.000000pt" viewBox="0 0 1542.000000 1125.000000" preserveAspectRatio="xMidYMid meet">

<g transform="translate(0.000000,1125.000000) scale(0.100000,-0.100000)" fill="#355f85" stroke="none">
<path d="M2207 11235 c-742 -94 -1382 -489 -1793 -1107 -152 -228 -290 -549 -349 -812 -55 -249 -58 -281 -62 -878 -4 -489 -3 -564 12 -619 53 -209 248 -337 466 -307 132 18 252 109 312 235 l32 68 6 550 c6 592 9 629 66 825 188 654 730 1128 1391 1215 675 89 1332 -249 1671 -860 86 -155 142 -313 189 -535 14 -67 16 -322 21 -2300 l6 -2225 32 -67 c154 -327 602 -327 756 0 l32 67 0 2250 c0 2139 -1 2256 -19 2370 -82 535 -314 1005 -681 1384 -386 397 -846 638 -1399 732 -158 27 -529 35 -689 14z" fill="#f5f5f5"/>
<path d="M8460 11235 c-833 -101 -1554 -606 -1933 -1352 -102 -200 -117 -285 -77 -414 94 -303 475 -396 697 -170 32 32 65 83 96 145 249 508 673 840 1209 948 94 19 146 23 303 23 157 0 209 -4 303 -23 710 -143 1245 -708 1347 -1422 13 -90 15 -405 15 -2251 0 -1510 3 -2163 11 -2205 32 -175 168 -307 346 -337 175 -28 363 74 441 240 l27 58 0 2280 0 2280 -23 128 c-187 1033 -943 1820 -1955 2036 -231 50 -571 65 -807 36z" fill="#f5f5f5"/>
<path d="M13707 11230 c-464 -84 -862 -389 -1061 -810 -82 -174 -120 -323 -136 -524 -13 -164 -13 -2793 0 -2871 37 -227 257 -387 477 -346 179 33 313 174 342 361 7 43 11 543 11 1450 0 1370 0 1386 21 1460 63 228 242 403 466 456 88 21 233 14 323 -15 190 -60 342 -212 408 -405 l27 -81 0 -2890 c0 -2752 -1 -2896 -18 -3025 -37 -267 -34 -315 21 -428 36 -73 134 -164 209 -192 228 -88 486 33 553 259 24 82 47 262 60 479 7 112 10 1110 8 3022 l-3 2855 -23 100 c-66 285 -184 511 -370 707 -175 183 -367 307 -595 383 -165 55 -235 66 -432 71 -149 3 -199 0 -288 -16z" fill="#f5f5f5"/>
<path d="M2390 9155 c-114 -32 -207 -112 -262 -223 l-33 -67 -3 -2210 c-2 -1560 0 -2242 8 -2320 57 -572 314 -1109 723 -1517 415 -412 951 -663 1537 -719 152 -14 443 -6 590 16 731 111 1360 524 1760 1154 71 113 190 361 235 490 78 227 120 440 136 690 6 107 9 696 7 1651 -3 1409 -4 1488 -21 1535 -42 115 -137 213 -247 257 -73 29 -212 31 -287 5 -113 -40 -205 -131 -255 -256 l-23 -56 -5 -1610 -6 -1610 -23 -100 c-83 -368 -257 -675 -517 -913 -506 -463 -1232 -570 -1839 -272 -471 232 -793 651 -917 1195 l-22 100 -6 2235 -5 2235 -21 51 c-48 116 -134 203 -241 245 -75 28 -189 34 -263 14z" fill="#f5f5f5"/>
<path d="M8657 9160 c-135 -35 -251 -143 -297 -279 l-20 -62 3 -2247 c3 -2082 4 -2254 20 -2346 55 -311 123 -522 253 -777 340 -668 974 -1152 1714 -1307 178 -38 280 -47 515 -47 248 1 362 13 570 62 241 57 550 185 745 309 644 410 1053 1047 1160 1809 17 117 25 737 11 805 -49 234 -273 382 -500 329 -118 -27 -237 -124 -288 -236 l-27 -58 -7 -340 c-7 -351 -13 -420 -56 -590 -135 -543 -547 -996 -1070 -1178 -708 -247 -1485 10 -1912 633 -142 207 -218 392 -279 680 -14 67 -16 321 -21 2305 l-6 2230 -32 67 c-44 93 -110 160 -199 204 -62 31 -84 37 -156 40 -45 2 -100 -1 -121 -6z" fill="#f5f5f5"/>
<path d="M295 6233 c-155 -56 -256 -174 -286 -338 -7 -40 -9 -325 -6 -919 3 -724 7 -884 21 -1005 112 -956 480 -1786 1107 -2497 151 -171 217 -208 369 -208 75 0 107 4 152 22 166 67 270 234 255 413 -8 100 -47 175 -141 279 -517 567 -811 1213 -913 2005 -14 110 -17 273 -22 1045 l-6 915 -32 67 c-41 88 -113 160 -201 201 -57 26 -81 32 -157 34 -67 3 -103 -1 -140 -14z" fill="#f5f5f5"/>
<path d="M7560 2484 c-83 -22 -192 -78 -249 -130 -28 -25 -104 -112 -169 -193 -522 -651 -1253 -1098 -2062 -1261 -270 -55 -377 -64 -705 -64 -386 0 -601 28 -940 121 -114 31 -141 35 -215 31 -110 -5 -194 -43 -267 -121 -128 -135 -154 -308 -73 -474 38 -77 127 -161 201 -191 145 -58 489 -135 774 -174 149 -20 212 -22 520 -23 278 0 380 4 495 18 498 62 953 193 1385 397 485 229 1002 611 1345 993 57 65 107 117 110 117 4 0 42 -39 86 -87 759 -841 1785 -1343 2928 -1434 189 -15 633 -7 816 15 716 86 1376 331 1960 727 280 190 659 536 890 813 121 144 154 203 169 297 44 274 -201 517 -473 470 -133 -23 -193 -64 -319 -216 -605 -728 -1466 -1177 -2429 -1266 -164 -15 -572 -7 -738 15 -658 87 -1258 343 -1780 760 -159 127 -407 376 -532 531 -130 164 -209 235 -311 284 -45 22 -106 44 -135 50 -73 15 -216 13 -282 -5z" fill="#f5f5f5"/>
</g>
</svg>